# Blender v2.77 (sub 0) OBJ File: 'mlp clotchs beta.blend'
# www.blender.org
mtllib lip.mtl
o ref_body_01.003
v -1.107009 0.474874 2.038643
v 0.993492 -1.250231 0.487770
v 4.158011 0.744428 -2.165970
v 2.646769 0.592512 0.306221
v 3.052015 0.680494 -0.785622
v 0.738535 0.711095 1.483780
v 1.380124 0.808988 0.872097
v -0.738026 0.711118 1.483772
v -1.380325 0.808973 0.872005
v -2.647019 0.592481 0.306038
v -3.052222 0.680356 -0.785683
v -4.158179 0.743993 -2.165874
v -4.483187 0.210103 -2.380318
v 4.483141 0.210576 -2.380703
v 2.854809 -0.979510 -0.550472
v 1.107832 0.474843 2.038666
v 4.521768 0.684217 -2.111694
v -4.522005 0.683713 -2.111717
v 3.007322 0.339841 0.521767
v -0.993573 -1.250247 0.487717
v -3.007528 0.339849 0.521614
v -2.854819 -0.979525 -0.550247
v 2.600990 -0.956912 0.311737
v 0.697893 -0.860964 1.704971
v 1.360111 -1.137385 1.003902
v -1.360230 -1.137400 1.003841
v -0.697738 -0.860964 1.704941
v -2.601061 -0.956919 0.311867
v -4.255505 0.164159 -1.587936
v -3.205395 -0.403391 0.058220
v -2.702867 -0.073001 1.056732
v -1.436042 -0.350085 2.011482
v -0.737894 0.075536 2.298584
v 0.738667 0.075513 2.298599
v 1.436150 -0.350115 2.011520
v 2.702664 -0.073016 1.056862
v 3.205285 -0.403384 0.058151
v 4.255387 0.164487 -1.588108
v 4.132260 0.430829 -2.330158
v 2.766446 -0.038668 -0.723839
v 0.978148 -0.087000 0.435402
v -0.978301 -0.087039 0.435318
v -2.766541 -0.038783 -0.723709
v -4.132301 0.430417 -2.329792
v 0.962803 0.998716 0.550606
v 0.993492 -1.172717 0.320198
v -0.993573 -1.172740 0.320148
v 2.854809 -0.901995 -0.718044
v 1.955572 -1.223887 0.045147
v 3.695801 -0.505290 -1.344090
v -2.854819 -0.902018 -0.717819
v 0.000656 0.533010 2.193943
v 4.337078 0.920553 -2.800159
v 3.610101 0.627637 -1.402405
v 4.430829 0.742109 -2.253784
v 2.856082 0.655256 -0.268959
v 2.041831 0.696714 0.748638
v 2.917183 0.438520 0.361374
v 2.678082 0.824659 -0.729641
v 1.083341 0.747800 1.167755
v 0.000338 0.781492 1.475952
v 1.015508 0.569410 1.793434
v -1.083332 0.747815 1.167721
v -1.014763 0.569440 1.793419
v -0.963029 0.998662 0.550488
v -2.042066 0.696699 0.748497
v -2.856344 0.655179 -0.269150
v -2.917401 0.438512 0.361206
v -2.678264 0.824460 -0.729599
v -3.610267 0.627416 -1.402382
v -4.337200 0.919927 -2.799885
v -4.431048 0.741620 -2.253777
v -4.483187 0.299039 -2.614632
v 5.243656 1.047284 -3.538818
v -5.243873 1.046308 -3.538593
v 3.782212 0.416593 -0.739769
v 2.136170 0.382932 1.504158
v -0.000024 -1.208895 0.670822
v -2.136094 0.382970 1.504097
v -3.782452 0.416456 -0.739944
v -3.695752 -0.505404 -1.343658
v -1.955666 -1.223918 0.045139
v 4.483141 0.299512 -2.615021
v 1.085147 -1.260768 0.700588
v -1.085237 -1.260790 0.700535
v 2.791354 -1.012614 -0.251133
v 2.905563 -0.705157 0.253971
v 2.010360 -1.065356 0.826466
v 1.037836 -1.000033 1.357838
v 1.056932 -0.637232 1.952484
v 0.000121 -0.887034 1.705952
v -1.037880 -1.000033 1.357796
v -2.010493 -1.065371 0.826439
v -1.056747 -0.637225 1.952446
v -2.791379 -1.012629 -0.250931
v -2.905625 -0.705157 0.254135
v 4.455173 0.511442 -1.852276
v 2.931157 0.201124 0.762054
v 1.015541 0.339506 2.210159
v -1.014730 0.339536 2.210140
v -2.931363 0.201139 0.761902
v -4.455380 0.510991 -1.852249
v -4.426267 0.154149 -2.065063
v -3.745885 -0.173182 -0.764000
v -2.950486 -0.245745 0.586018
v -2.111843 -0.223055 1.677559
v -1.097129 -0.142024 2.160892
v 0.000503 0.022519 2.387962
v 1.097480 -0.142054 2.160919
v 2.111732 -0.223078 1.677628
v 2.950294 -0.245730 0.586121
v 3.745794 -0.173083 -0.764130
v 4.426203 0.154600 -2.065395
v 3.512958 0.134260 -1.551147
v 1.914313 -0.106303 -0.008301
v -0.000055 -0.055621 0.589275
v -1.914494 -0.106379 -0.008377
v -3.512968 0.134061 -1.550804
v 1.955572 -1.146372 -0.122425
v -0.000024 -1.131381 0.503250
v -1.955666 -1.146411 -0.122429
v -3.695752 -0.425036 -1.527920
v 3.639941 0.496038 -0.878189
v 0.000576 0.630636 1.907936
v 2.001727 0.508382 1.289188
v -1.873323 0.933652 0.105682
v -3.469130 0.782697 -1.762428
v -3.640179 0.495901 -0.878361
v -2.001756 0.508413 1.289124
v 3.695801 -0.424922 -1.528347
v -5.243873 1.146665 -3.839653
v 5.243656 1.147634 -3.839882
v 3.469040 0.783040 -1.762669
v -0.000086 1.020139 0.675301
v 1.873054 0.933774 0.105816
v 1.969269 -1.223010 0.324261
v -0.000007 -1.177333 1.054653
v -1.969373 -1.223040 0.324249
v 3.603420 -0.561503 -0.923355
v 2.054669 -0.704035 1.419144
v 0.000269 -0.496707 2.231003
v -2.054799 -0.704020 1.419094
v -3.603388 -0.561579 -0.922974
v 3.670596 0.185232 -0.427380
v 4.639714 0.510473 -2.351135
v 2.012933 0.185674 1.789745
v 0.000618 0.369886 2.348957
v -2.012899 0.185720 1.789684
v -3.670814 0.185132 -0.427525
v -4.639870 0.509893 -2.350945
vt 0.4033 0.7661
vt 0.4033 0.7661
vt 0.4033 0.7661
vt 0.4033 0.7661
vt 0.4033 0.7661
vt 0.4033 0.7661
vt 0.4033 0.7661
vt 0.4033 0.7661
vt 0.4033 0.7661
vt 0.4033 0.7661
vt 0.4033 0.7661
vt 0.4033 0.7661
vt 0.4033 0.7661
vt 0.4033 0.7661
vt 0.4033 0.7661
vt 0.4033 0.7661
vt 0.4033 0.7661
vt 0.4033 0.7661
vt 0.4033 0.7661
vt 0.4033 0.7661
vt 0.4033 0.7661
vt 0.4033 0.7661
vt 0.4033 0.7661
vt 0.4033 0.7661
vt 0.4033 0.7661
vt 0.4033 0.7661
vt 0.4033 0.7661
vt 0.4033 0.7661
vt 0.4033 0.7661
vt 0.4033 0.7661
vt 0.4033 0.7661
vt 0.4033 0.7661
vt 0.4033 0.7661
vt 0.4033 0.7661
vt 0.4033 0.7661
vt 0.4033 0.7661
vt 0.4033 0.7661
vt 0.4033 0.7661
vt 0.4033 0.7661
vt 0.4119 0.7620
vt 0.4085 0.7620
vt 0.4137 0.7579
vt 0.4204 0.7579
vt 0.4278 0.7579
vt 0.4136 0.7623
vt 0.4010 0.7620
vt 0.3983 0.7620
vt 0.3933 0.7579
vt 0.3987 0.7579
vt 0.4035 0.7579
vt 0.4034 0.7620
vt 0.3949 0.7620
vt 0.3931 0.7623
vt 0.3792 0.7579
vt 0.3865 0.7579
vt 0.3982 0.7566
vt 0.4034 0.7566
vt 0.4034 0.7567
vt 0.3987 0.7567
vt 0.3937 0.7565
vt 0.3929 0.7563
vt 0.3936 0.7559
vt 0.3987 0.7563
vt 0.4034 0.7563
vt 0.4301 0.7559
vt 0.4324 0.7564
vt 0.4264 0.7564
vt 0.4248 0.7555
vt 0.4309 0.7552
vt 0.4358 0.7553
vt 0.4174 0.7564
vt 0.4195 0.7566
vt 0.4135 0.7570
vt 0.4130 0.7565
vt 0.4190 0.7559
vt 0.4221 0.7569
vt 0.4068 0.7570
vt 0.4085 0.7571
vt 0.4034 0.7571
vt 0.4080 0.7566
vt 0.4100 0.7574
vt 0.4083 0.7579
vt 0.4000 0.7570
vt 0.3983 0.7572
vt 0.3968 0.7574
vt 0.3933 0.7570
vt 0.3894 0.7564
vt 0.3874 0.7566
vt 0.3820 0.7555
vt 0.3877 0.7559
vt 0.3848 0.7569
vt 0.3805 0.7565
vt 0.3768 0.7560
vt 0.3746 0.7564
vt 0.3712 0.7553
vt 0.3760 0.7552
vt 0.4085 0.7565
vt 0.4138 0.7562
vt 0.4080 0.7563
vt 0.4130 0.7559
vt 0.4312 0.7550
vt 0.4369 0.7549
vt 0.4255 0.7552
vt 0.4246 0.7547
vt 0.4306 0.7546
vt 0.4353 0.7543
vt 0.3757 0.7550
vt 0.3814 0.7552
vt 0.3700 0.7549
vt 0.3716 0.7543
vt 0.3763 0.7546
vt 0.3822 0.7547
vt 0.4195 0.7557
vt 0.4191 0.7555
vt 0.3872 0.7557
vt 0.3876 0.7555
vt 0.4174 0.7506
vt 0.4191 0.7494
vt 0.4243 0.7506
vt 0.4191 0.7516
vt 0.4141 0.7527
vt 0.4141 0.7506
vt 0.4141 0.7489
vt 0.4070 0.7519
vt 0.4088 0.7511
vt 0.4087 0.7531
vt 0.4034 0.7536
vt 0.4034 0.7516
vt 0.4034 0.7491
vt 0.4106 0.7503
vt 0.4088 0.7490
vt 0.3963 0.7503
vt 0.3980 0.7511
vt 0.3927 0.7527
vt 0.3928 0.7506
vt 0.3928 0.7489
vt 0.3981 0.7490
vt 0.3998 0.7519
vt 0.3981 0.7531
vt 0.3894 0.7506
vt 0.3878 0.7494
vt 0.3877 0.7516
vt 0.3825 0.7506
vt 0.3781 0.7534
vt 0.3765 0.7526
vt 0.3820 0.7528
vt 0.3856 0.7527
vt 0.3871 0.7539
vt 0.3890 0.7548
vt 0.3928 0.7546
vt 0.3964 0.7543
vt 0.3982 0.7549
vt 0.3999 0.7555
vt 0.4034 0.7553
vt 0.4068 0.7555
vt 0.4085 0.7549
vt 0.4103 0.7542
vt 0.4139 0.7546
vt 0.4177 0.7548
vt 0.4196 0.7539
vt 0.4212 0.7527
vt 0.4249 0.7528
vt 0.4288 0.7534
vt 0.4304 0.7525
vt 0.4115 0.7633
vt 0.4155 0.7620
vt 0.4058 0.7620
vt 0.3952 0.7633
vt 0.3912 0.7620
vn -0.1144 -0.9016 -0.4171
vn -0.1660 -0.8950 -0.4140
vn 0.0237 -0.9994 -0.0247
vn -0.0489 -0.9979 0.0427
vn -0.4622 -0.8360 -0.2956
vn -0.3235 -0.8772 -0.3548
vn -0.6850 -0.7280 0.0280
vn -0.8615 -0.4693 0.1939
vn 0.3239 -0.8771 -0.3548
vn 0.4628 -0.8358 -0.2955
vn 0.8617 -0.4690 0.1939
vn 0.6852 -0.7278 0.0281
vn -0.0314 -0.9072 -0.4196
vn 0.1246 -0.9052 -0.4062
vn 0.4863 -0.8738 -0.0031
vn 0.2336 -0.9717 -0.0340
vn 0.1659 -0.8950 -0.4140
vn 0.1144 -0.9016 -0.4171
vn 0.0489 -0.9979 0.0427
vn -0.0237 -0.9994 -0.0247
vn -0.1246 -0.9052 -0.4062
vn 0.0313 -0.9072 -0.4196
vn -0.2336 -0.9717 -0.0341
vn -0.4863 -0.8738 -0.0031
vn -0.5998 0.0047 -0.8001
vn -0.6834 -0.0050 -0.7300
vn -0.7557 -0.1575 -0.6357
vn -0.6813 -0.1443 -0.7177
vn 0.4217 0.0861 -0.9026
vn 0.4288 0.0856 -0.8993
vn 0.1391 0.0908 -0.9861
vn 0.1646 0.0903 -0.9822
vn 0.6812 -0.1443 -0.7177
vn 0.7557 -0.1575 -0.6357
vn 0.6833 -0.0050 -0.7301
vn 0.5997 0.0047 -0.8002
vn -0.2481 0.8139 0.5253
vn 0.0000 0.8466 0.5322
vn 0.0000 0.9436 0.3311
vn -0.1606 0.9351 0.3158
vn -0.2852 0.9025 0.3228
vn -0.4724 0.7355 0.4856
vn -0.5336 0.2889 0.7949
vn -0.2820 0.3845 0.8790
vn 0.0000 0.4531 0.8914
vn 0.1609 0.9470 0.2778
vn -0.6257 0.6652 -0.4074
vn -0.5221 0.7470 -0.4115
vn 0.2387 0.9394 0.2462
vn 0.2800 0.9285 0.2438
vn 0.1293 0.9482 0.2902
vn 0.3194 0.3309 -0.8880
vn 0.3767 0.8834 0.2788
vn 0.3658 0.9017 0.2306
vn -0.1797 0.8780 -0.4435
vn 0.3021 0.9015 0.3098
vn 0.2852 0.9025 0.3227
vn 0.3797 0.8810 0.2822
vn 0.3454 0.9131 0.2165
vn -0.3440 0.8226 -0.4528
vn 0.1234 0.9463 0.2988
vn 0.1485 0.9367 0.3171
vn 0.0000 0.8650 -0.5016
vn 0.0000 0.9529 0.3032
vn 0.1607 0.9351 0.3157
vn 0.1790 0.9264 0.3314
vn -0.1035 0.8876 -0.4488
vn -0.1234 0.9463 0.2989
vn -0.1484 0.9366 0.3171
vn -0.1790 0.9264 0.3313
vn 0.1035 0.8876 -0.4489
vn 0.1796 0.8780 -0.4436
vn -0.3021 0.9015 0.3097
vn -0.3767 0.8834 0.2788
vn -0.3657 0.9017 0.2305
vn -0.2801 0.9285 0.2437
vn -0.3797 0.8810 0.2821
vn -0.3454 0.9131 0.2164
vn 0.3440 0.8225 -0.4529
vn 0.5220 0.7470 -0.4117
vn -0.2387 0.9394 0.2460
vn -0.1610 0.9471 0.2777
vn 0.6255 0.6652 -0.4075
vn -0.3193 0.3307 -0.8881
vn -0.1296 0.9481 0.2901
vn 0.2483 0.8139 0.5253
vn 0.4726 0.7354 0.4856
vn 0.2821 0.3843 0.8790
vn 0.5337 0.2887 0.7948
vn 0.6564 0.6063 0.4488
vn 0.9839 0.1533 0.0913
vn 0.5937 0.6831 0.4253
vn 0.8607 0.0384 0.5077
vn 0.8920 0.0444 0.4499
vn 0.9154 -0.2368 0.3254
vn -0.6565 0.6063 0.4488
vn -0.5937 0.6831 0.4252
vn -0.9840 0.1528 0.0910
vn -0.9154 -0.2369 0.3254
vn -0.8920 0.0444 0.4499
vn -0.8606 0.0384 0.5077
vn 0.6164 0.6576 0.4331
vn 0.7899 0.1833 0.5851
vn -0.6164 0.6576 0.4330
vn -0.7899 0.1834 0.5851
vn 0.5102 -0.7949 0.3283
vn 0.4519 -0.8826 0.1296
vn 0.6880 -0.6995 0.1929
vn 0.6887 -0.5924 0.4181
vn 0.4842 -0.6476 0.5884
vn 0.3511 -0.8547 0.3822
vn 0.2061 -0.9713 0.1186
vn 0.0818 -0.8548 0.5124
vn 0.1257 -0.8852 0.4478
vn 0.2060 -0.6482 0.7331
vn 0.0000 -0.5501 0.8351
vn 0.0000 -0.8603 0.5098
vn 0.0000 -0.9661 0.2581
vn 0.1531 -0.9067 0.3929
vn 0.0406 -0.9836 0.1758
vn -0.1531 -0.9067 0.3930
vn -0.1257 -0.8852 0.4479
vn -0.4841 -0.6475 0.5884
vn -0.3511 -0.8547 0.3823
vn -0.2061 -0.9713 0.1186
vn -0.0406 -0.9836 0.1758
vn -0.0818 -0.8548 0.5124
vn -0.2059 -0.6482 0.7331
vn -0.5102 -0.7949 0.3283
vn -0.4519 -0.8826 0.1296
vn -0.6887 -0.5924 0.4181
vn -0.6880 -0.6995 0.1930
vn -0.8674 -0.3234 0.3781
vn -0.8299 -0.5233 0.1933
vn -0.8424 -0.3517 0.4083
vn -0.8019 -0.3874 0.4547
vn -0.7899 -0.3177 0.5245
vn -0.7629 -0.1852 0.6193
vn -0.6063 -0.2516 0.7544
vn -0.3757 -0.3345 0.8643
vn -0.2839 -0.2105 0.9354
vn -0.1899 -0.0724 0.9791
vn 0.0000 -0.0898 0.9959
vn 0.1899 -0.0725 0.9791
vn 0.2840 -0.2107 0.9354
vn 0.3757 -0.3345 0.8642
vn 0.6063 -0.2517 0.7543
vn 0.7630 -0.1853 0.6193
vn 0.7899 -0.3177 0.5245
vn 0.8019 -0.3874 0.4547
vn 0.8424 -0.3516 0.4082
vn 0.8675 -0.3233 0.3780
vn 0.8300 -0.5231 0.1932
vn -0.6920 -0.2953 -0.6587
vn -0.1390 -0.7692 -0.6236
vn -0.2266 -0.7105 -0.6662
vn -0.7122 -0.2094 -0.6700
vn -0.2919 0.0891 -0.9523
vn 0.0000 0.0916 -0.9958
vn -0.5392 0.0432 -0.8410
vn -0.3404 -0.5586 -0.7563
vn -0.2649 -0.5204 -0.8118
vn 0.0000 -0.5184 -0.8551
vn 0.6920 -0.2954 -0.6587
vn 0.7122 -0.2095 -0.6700
vn 0.2268 -0.7105 -0.6662
vn 0.1393 -0.7693 -0.6235
usemtl Rubber
s off
f 2/1/1 78/2/1 120/3/1 46/4/1
f 2/1/2 46/4/2 119/5/2 49/6/2
f 2/1/3 49/6/3 136/7/3 84/8/3
f 2/1/4 84/8/4 137/9/4 78/2/4
f 13/10/5 75/11/5 131/12/5 73/13/5
f 13/10/6 73/13/6 122/14/6 81/15/6
f 13/10/7 81/15/7 143/16/7 103/17/7
f 13/10/8 103/17/8 150/18/8 75/11/8
f 14/19/9 50/20/9 130/21/9 83/22/9
f 14/19/10 83/22/10 132/23/10 74/24/10
f 14/19/11 74/24/11 145/25/11 113/26/11
f 14/19/12 113/26/12 139/27/12 50/20/12
f 15/28/13 49/6/13 119/5/13 48/29/13
f 15/28/14 48/29/14 130/21/14 50/20/14
f 15/28/15 50/20/15 139/27/15 86/30/15
f 15/28/16 86/30/16 136/7/16 49/6/16
f 20/31/17 82/32/17 121/33/17 47/34/17
f 20/31/18 47/34/18 120/3/18 78/2/18
f 20/31/19 78/2/19 137/9/19 85/35/19
f 20/31/20 85/35/20 138/36/20 82/32/20
f 22/37/21 81/15/21 122/14/21 51/38/21
f 22/37/22 51/38/22 121/33/22 82/32/22
f 22/37/23 82/32/23 138/36/23 95/39/23
f 22/37/24 95/39/24 143/16/24 81/15/24
f 40/40/25 48/29/25 119/5/25 115/41/25
f 40/40/26 115/41/26 135/42/26 59/43/26
f 40/40/27 59/43/27 133/44/27 114/45/27
f 40/40/28 114/45/28 130/21/28 48/29/28
f 42/46/29 47/34/29 121/33/29 117/47/29
f 42/46/30 117/47/30 126/48/30 65/49/30
f 42/46/31 65/49/31 134/50/31 116/51/31
f 42/46/32 116/51/32 120/3/32 47/34/32
f 43/52/33 51/38/33 122/14/33 118/53/33
f 43/52/34 118/53/34 127/54/34 69/55/34
f 43/52/35 69/55/35 126/48/35 117/47/35
f 43/52/36 117/47/36 121/33/36 51/38/36
s 1
f 1/56/37 52/57/38 124/58/39 64/59/40
f 1/56/37 64/59/40 129/60/41 79/61/42
f 1/56/37 79/61/42 148/62/43 100/63/44
f 1/56/37 100/63/44 147/64/45 52/57/38
f 3/65/46 53/66/47 133/44/48 54/67/49
f 3/65/46 54/67/49 123/68/50 55/69/51
f 3/65/46 55/69/51 132/70/52 53/66/47
f 4/71/53 56/72/54 135/42/55 57/73/56
f 4/71/53 57/73/56 125/74/57 58/75/58
f 4/71/53 58/75/58 123/68/50 56/72/54
f 5/76/59 56/72/54 123/68/50 54/67/49
f 5/76/59 54/67/49 133/44/48 59/43/60
f 5/76/59 59/43/60 135/42/55 56/72/54
f 6/77/61 60/78/62 134/50/63 61/79/64
f 6/77/61 61/79/64 124/58/39 62/80/65
f 6/77/61 62/80/65 125/74/57 60/78/62
f 7/81/66 60/78/62 125/74/57 57/73/56
f 7/81/66 57/73/56 135/42/55 45/82/67
f 7/81/66 45/82/67 134/50/63 60/78/62
f 8/83/68 63/84/69 129/60/41 64/59/40
f 8/83/68 64/59/40 124/58/39 61/79/64
f 8/83/68 61/79/64 134/50/63 63/84/69
f 9/85/70 63/84/69 134/50/63 65/49/71
f 9/85/70 65/49/71 126/48/72 66/86/73
f 9/85/70 66/86/73 129/60/41 63/84/69
f 10/87/74 67/88/75 128/89/76 68/90/77
f 10/87/74 68/90/77 129/60/41 66/86/73
f 10/87/74 66/86/73 126/48/72 67/88/75
f 11/91/78 67/88/75 126/48/72 69/55/79
f 11/91/78 69/55/79 127/54/80 70/92/81
f 11/91/78 70/92/81 128/89/76 67/88/75
f 12/93/82 71/94/83 131/95/84 72/96/85
f 12/93/82 72/96/85 128/89/76 70/92/81
f 12/93/82 70/92/81 127/54/80 71/94/83
f 16/97/86 77/98/87 125/74/57 62/80/65
f 16/97/86 62/80/65 124/58/39 52/57/38
f 16/97/86 52/57/38 147/64/45 99/99/88
f 16/97/86 99/99/88 146/100/89 77/98/87
f 17/101/90 74/102/91 132/70/52 55/69/51
f 17/101/90 55/69/51 123/68/50 76/103/92
f 17/101/90 76/103/92 144/104/93 97/105/94
f 17/101/90 97/105/94 145/106/95 74/102/91
f 18/107/96 80/108/97 128/89/76 72/96/85
f 18/107/96 72/96/85 131/95/84 75/109/98
f 18/107/96 75/109/98 150/110/99 102/111/100
f 18/107/96 102/111/100 149/112/101 80/108/97
f 19/113/102 76/103/92 123/68/50 58/75/58
f 19/113/102 58/75/58 125/74/57 77/98/87
f 19/113/102 77/98/87 146/100/89 98/114/103
f 19/113/102 98/114/103 144/104/93 76/103/92
f 21/115/104 79/61/42 129/60/41 68/90/77
f 21/115/104 68/90/77 128/89/76 80/108/97
f 21/115/104 80/108/97 149/112/101 101/116/105
f 21/115/104 101/116/105 148/62/43 79/61/42
f 23/117/106 86/118/107 139/119/108 87/120/109
f 23/117/106 87/120/109 140/121/110 88/122/111
f 23/117/106 88/122/111 136/123/112 86/118/107
f 24/124/113 89/125/114 140/121/110 90/126/115
f 24/124/113 90/126/115 141/127/116 91/128/117
f 24/124/113 91/128/117 137/129/118 89/125/114
f 25/130/119 89/125/114 137/129/118 84/131/120
f 25/130/119 84/131/120 136/123/112 88/122/111
f 25/130/119 88/122/111 140/121/110 89/125/114
f 26/132/121 92/133/122 142/134/123 93/135/124
f 26/132/121 93/135/124 138/136/125 85/137/126
f 26/132/121 85/137/126 137/129/118 92/133/122
f 27/138/127 92/133/122 137/129/118 91/128/117
f 27/138/127 91/128/117 141/127/116 94/139/128
f 27/138/127 94/139/128 142/134/123 92/133/122
f 28/140/129 95/141/130 138/136/125 93/135/124
f 28/140/129 93/135/124 142/134/123 96/142/131
f 28/140/129 96/142/131 143/143/132 95/141/130
f 29/144/133 103/145/134 143/143/132 104/146/135
f 29/144/133 104/146/135 149/112/101 102/111/100
f 29/144/133 102/111/100 150/110/99 103/145/134
f 30/147/136 105/148/137 149/112/101 104/146/135
f 30/147/136 104/146/135 143/143/132 96/142/131
f 30/147/136 96/142/131 142/134/123 105/148/137
f 31/149/138 105/148/137 142/134/123 106/150/139
f 31/149/138 106/150/139 148/62/43 101/116/105
f 31/149/138 101/116/105 149/112/101 105/148/137
f 32/151/140 107/152/141 148/62/43 106/150/139
f 32/151/140 106/150/139 142/134/123 94/139/128
f 32/151/140 94/139/128 141/127/116 107/152/141
f 33/153/142 107/152/141 141/127/116 108/154/143
f 33/153/142 108/154/143 147/64/45 100/63/44
f 33/153/142 100/63/44 148/62/43 107/152/141
f 34/155/144 109/156/145 146/100/89 99/99/88
f 34/155/144 99/99/88 147/64/45 108/154/143
f 34/155/144 108/154/143 141/127/116 109/156/145
f 35/157/146 109/156/145 141/127/116 90/126/115
f 35/157/146 90/126/115 140/121/110 110/158/147
f 35/157/146 110/158/147 146/100/89 109/156/145
f 36/159/148 111/160/149 144/104/93 98/114/103
f 36/159/148 98/114/103 146/100/89 110/158/147
f 36/159/148 110/158/147 140/121/110 111/160/149
f 37/161/150 111/160/149 140/121/110 87/120/109
f 37/161/150 87/120/109 139/119/108 112/162/151
f 37/161/150 112/162/151 144/104/93 111/160/149
f 38/163/152 113/164/153 145/106/95 97/105/94
f 38/163/152 97/105/94 144/104/93 112/162/151
f 38/163/152 112/162/151 139/119/108 113/164/153
f 39/165/154 53/166/47 132/23/52 83/22/155
f 39/165/154 83/22/155 130/21/156 114/45/157
f 39/165/154 114/45/157 133/44/48 53/166/47
f 41/167/158 116/51/159 134/50/63 45/82/67
f 41/167/158 45/82/67 135/42/55 115/41/160
f 41/167/158 115/41/160 119/5/161 46/4/162
f 41/167/158 46/4/162 120/3/163 116/51/159
f 44/168/164 71/169/83 127/54/80 118/53/165
f 44/168/164 118/53/165 122/14/166 73/13/167
f 44/168/164 73/13/167 131/12/84 71/169/83
