# Blender v2.78 (sub 0) OBJ File: 'mlp Hair 5.4.blend'
# www.blender.org
mtllib pone_boob.mtl
o Sphere.004
v -0.614152 3.495029 -1.629614
v -0.645390 3.078013 -2.641816
v -0.664117 2.520392 -3.382851
v -0.633925 1.210754 -4.107711
v -0.574286 0.479035 -4.220974
v -0.362041 -1.163847 -4.144494
v 0.036000 -2.839790 -3.551248
v 0.302936 -3.599240 -2.994885
v 0.874245 -4.920353 -1.277318
v 1.117541 -5.561105 -0.126999
v -0.230169 3.580691 -1.542751
v 0.043943 3.236112 -2.482524
v 0.216226 2.729354 -3.172942
v 0.311730 2.126699 -3.610994
v 0.384705 1.462896 -3.845200
v 0.472925 0.742904 -3.938102
v 0.587558 -0.037916 -3.931013
v 0.736774 -0.869851 -3.828135
v 0.927595 -1.722297 -3.609964
v 1.146562 -2.557085 -3.252891
v 1.353384 -3.348282 -2.728562
v 1.492433 -4.092560 -2.002676
v 1.525296 -4.799497 -1.080420
v 1.492473 -5.490496 -0.046632
v 0.118012 3.673513 -1.284730
v 0.675691 3.406771 -2.002636
v 1.036259 2.952968 -2.527916
v 1.236174 2.377353 -2.856839
v 1.363158 1.723980 -3.021667
v 1.481838 1.013172 -3.066351
v 1.612422 0.249875 -3.024638
v 1.764959 -0.561947 -2.907270
v 1.947734 -1.405992 -2.705506
v 2.140091 -2.252480 -2.402446
v 2.278655 -3.076259 -1.974524
v 2.275309 -3.874088 -1.392336
v 2.077455 -4.654086 -0.657285
v 1.758740 -5.420134 0.147579
v 0.372576 3.760856 -0.891277
v 1.147697 3.568567 -1.265973
v 1.667910 3.167419 -1.528380
v 1.967189 2.620558 -1.678102
v 2.143652 1.978318 -1.731161
v 2.277249 1.273574 -1.709447
v 2.401004 0.521317 -1.632505
v 2.533119 -0.276346 -1.511082
v 2.686727 -1.114293 -1.345248
v 2.839791 -1.971391 -1.128003
v 2.916009 -2.824685 -0.846686
v 2.805695 -3.671172 -0.484294
v 2.445677 -4.516941 -0.040502
v 1.933405 -5.355012 0.438237
v 0.487151 3.829354 -0.424529
v 1.372391 3.697595 -0.389865
v 1.992059 3.343879 -0.335092
v 2.368016 2.829734 -0.265352
v 2.587919 2.206704 -0.181315
v 2.734077 1.510940 -0.082299
v 2.851460 0.761479 0.029217
v 2.965387 -0.037326 0.146708
v 3.088644 -0.881530 0.263815
v 3.198095 -1.752846 0.376721
v 3.217152 -2.630992 0.483904
v 3.035038 -3.515256 0.586059
v 2.590469 -4.411348 0.684749
v 1.989874 -5.305046 0.781092
v 0.440486 3.867832 0.039771
v 1.303115 3.772342 0.479998
v 1.932520 3.452245 0.846480
v 2.337458 2.968998 1.130030
v 2.585592 2.370987 1.348232
v 2.750920 1.687842 1.526429
v 2.881410 0.934767 1.678133
v 3.000038 0.120725 1.797647
v 3.110078 -0.741486 1.870029
v 3.185489 -1.629269 1.880517
v 3.161114 -2.524394 1.814253
v 2.947305 -3.430146 1.656300
v 2.499891 -4.353784 1.409772
v 1.919550 -5.277842 1.123947
v 0.231322 3.869788 0.429651
v 0.929397 3.778914 1.207387
v 1.459772 3.468991 1.828333
v 1.823172 3.002216 2.282378
v 2.065598 2.421700 2.608202
v 2.243614 1.746535 2.856544
v 2.395413 0.985350 3.052816
v 2.532889 0.152771 3.185392
v 2.647936 -0.726483 3.227246
v 2.715245 -1.623700 3.154149
v 2.689809 -2.522295 2.941840
v 2.515286 -3.429008 2.563628
v 2.169984 -4.352988 2.024520
v 1.733142 -5.277539 1.414605
v -0.113886 3.834808 0.688481
v 0.295709 3.715393 1.688629
v 0.624705 3.388130 2.474455
v 0.871578 2.915950 3.036557
v 1.059972 2.336502 3.431037
v 1.221282 1.659408 3.728281
v 1.376012 0.888137 3.960444
v 1.525936 0.042357 4.107795
v 1.659649 -0.844166 4.132667
v 1.759165 -1.738645 4.004915
v 1.801158 -2.625286 3.695315
v 1.760623 -3.511826 3.170156
v 1.631755 -4.408546 2.435926
v 1.459026 -5.304184 1.608817
v -0.535634 3.768310 0.779699
v -0.486631 3.591774 1.857902
v -0.422276 3.222836 2.700710
v -0.343410 2.725189 3.298962
v -0.249816 2.131725 3.715941
v -0.139186 1.444682 4.030287
v -0.009248 0.663587 4.276527
v 0.139086 -0.188933 4.430676
v 0.300874 -1.073701 4.450407
v 0.468990 -1.955328 4.303692
v 0.637528 -2.817198 3.960099
v 0.804215 -3.665366 3.384023
v 0.969191 -4.509841 2.583317
v 1.134701 -5.346183 1.684262
v -0.569576 3.692515 -0.431897
v -0.960106 3.680203 0.690084
v -1.276888 3.426693 1.691138
v -1.485834 2.998949 2.475786
v -1.586427 2.462001 3.034024
v -1.600977 1.845173 3.424031
v -1.555687 1.144717 3.719669
v -1.464484 0.355738 3.954030
v -1.326020 -0.498929 4.104738
v -1.133899 -1.376794 4.131737
v -0.883875 -2.239680 4.004810
v -0.568836 -3.068585 3.695796
v -0.175557 -3.866184 3.172502
v 0.294741 -4.641162 2.444015
v 0.797788 -5.395429 1.630924
v -1.316353 3.583449 0.431663
v -1.939536 3.244309 1.209859
v -2.377041 2.749296 1.827230
v -2.627548 2.165793 2.272971
v -2.732127 1.521531 2.590043
v -2.741388 0.808187 2.835785
v -2.684145 0.015099 3.037202
v -2.557383 -0.837848 3.177431
v -2.343410 -1.706176 3.224476
v -2.026518 -2.548139 3.153584
v -1.588210 -3.341282 2.942371
v -1.003510 -4.084430 2.566581
v -0.277466 -4.785325 2.034608
v 0.502434 -5.454123 1.441411
v -1.545454 3.492604 0.041331
v -2.361361 3.071866 0.481454
v -2.936658 2.510806 0.843643
v -3.271388 1.880052 1.118147
v -3.420820 1.208363 1.327091
v -3.454178 0.485034 1.502608
v -3.414232 -0.307184 1.659822
v -3.300021 -1.154404 1.787726
v -3.085086 -2.011825 1.866183
v -2.741403 -2.833797 1.879494
v -2.238013 -3.593867 1.814379
v -1.539005 -4.287280 1.657848
v -0.650939 -4.921886 1.415093
v 0.310419 -5.518176 1.137741
v -1.612427 3.422333 -0.422429
v -2.475590 2.937718 -0.385667
v -3.071225 2.323559 -0.329924
v -3.404151 1.653486 -0.261378
v -3.539987 0.958745 -0.179880
v -3.560066 0.228403 -0.082790
v -3.518271 -0.560249 0.028179
v -3.418456 -1.400028 0.145801
v -3.228821 -2.247263 0.263249
v -2.909153 -3.053210 0.376446
v -2.415047 -3.787815 0.483642
v -1.700139 -4.443430 0.585182
v -0.769137 -5.028283 0.682031
v 0.250703 -5.571016 0.775170
v -1.517927 3.385258 -0.886809
v -2.288442 2.867473 -1.254509
v -2.798495 2.226213 -1.506848
v -3.059270 1.535853 -1.645790
v -3.140552 0.828183 -1.692168
v -3.125834 0.092262 -1.672437
v -3.071784 -0.696448 -1.605913
v -2.985173 -1.533374 -1.497146
v -2.832797 -2.375447 -1.340000
v -2.567531 -3.172714 -1.126674
v -2.136794 -3.893486 -0.847099
v -1.489276 -4.528713 -0.487490
v -0.627441 -5.086822 -0.051107
v 0.325070 -5.599787 0.412599
v -1.293876 3.387810 -1.277791
v -1.870104 2.874161 -1.984875
v -2.233857 2.238594 -2.494465
v -2.398993 1.553183 -2.806619
v -2.426205 0.846497 -2.961609
v -2.385001 0.106466 -3.010541
v -2.321100 -0.688823 -2.985786
v -2.238259 -1.530998 -2.887659
v -2.106430 -2.375690 -2.698451
v -1.883258 -3.173800 -2.400776
v -1.522515 -3.894756 -1.975131
v -0.981658 -4.530240 -1.396646
v -0.264543 -5.089190 -0.671846
v 0.528949 -5.603925 0.110367
v -0.981205 3.427332 -1.536912
v -1.302999 2.950807 -2.467937
v -1.500077 2.347398 -3.146208
v -1.580285 1.685806 -3.571997
v -1.576704 0.991255 -3.799991
v -1.527449 0.251760 -3.897522
v -1.456141 -0.549401 -3.903896
v -1.359645 -1.398214 -3.815136
v -1.215750 -2.249564 -3.605611
v -0.999445 -3.056679 -3.251989
v -0.687975 -3.791462 -2.729086
v -0.264345 -4.447514 -2.005820
v 0.259874 -5.034229 -1.091146
v 0.831252 -5.587421 -0.075021
v -0.663330 1.888950 -3.852168
v -0.486261 -0.317420 -4.234212
v -0.188944 -2.019131 -3.925328
v 0.592183 -4.291862 -2.226606
v 1.130316 -5.441713 0.778631
v 1.130316 -5.441713 0.778631
v 1.130316 -5.441713 0.778631
v 1.130316 -5.441713 0.778631
v 1.130316 -5.441713 0.778631
v 1.130316 -5.441713 0.778631
v 1.130316 -5.441713 0.778631
v 1.130316 -5.441713 0.778631
v 1.130316 -5.441713 0.778631
v 1.130316 -5.441713 0.778631
v 1.130316 -5.441713 0.778631
v 1.130316 -5.441713 0.778631
v 1.130316 -5.441713 0.778631
v 1.130316 -5.441713 0.778631
v 1.130316 -5.441713 0.778631
v 1.130316 -5.441713 0.778631
vn -0.1593 0.6806 -0.7151
vn -0.1839 0.8464 -0.4998
vn 0.0262 0.8736 -0.4859
vn 0.1759 0.7002 -0.6918
vn 0.1326 -0.6251 -0.7692
vn 0.0962 -0.4675 -0.8787
vn 0.5082 -0.2989 -0.8076
vn 0.5000 -0.4657 -0.7302
vn -0.1231 0.4549 -0.8820
vn 0.3042 0.4653 -0.8313
vn 0.1548 -0.7500 -0.6430
vn 0.4727 -0.6252 -0.6210
vn -0.0837 0.2350 -0.9684
vn 0.3886 0.2538 -0.8857
vn 0.1588 -0.8221 -0.5466
vn 0.4351 -0.7296 -0.5276
vn -0.0489 0.0730 -0.9961
vn 0.4390 0.1125 -0.8914
vn 0.1578 -0.9587 -0.2365
vn 0.3315 -0.9149 -0.2302
vn -0.0179 -0.0477 -0.9987
vn 0.4696 0.0188 -0.8827
vn 0.0157 -0.1688 -0.9855
vn 0.4898 -0.0651 -0.8694
vn -0.1957 0.9404 -0.2782
vn -0.1888 0.9762 -0.1067
vn -0.1034 0.9576 -0.2687
vn 0.0548 -0.3094 -0.9493
vn 0.5029 -0.1651 -0.8484
vn -0.0316 0.9718 -0.2337
vn 0.2005 0.8884 -0.4130
vn 0.7813 -0.0179 -0.6239
vn 0.7848 -0.1154 -0.6089
vn 0.4481 0.6865 -0.5726
vn 0.7739 -0.2837 -0.5661
vn 0.6219 0.4281 -0.6556
vn 0.7283 -0.4826 -0.4864
vn 0.7067 0.2331 -0.6680
vn 0.6658 -0.6231 -0.4104
vn 0.7441 0.1274 -0.6558
vn 0.4650 -0.8704 -0.1618
vn 0.7634 0.0708 -0.6420
vn 0.7745 0.0318 -0.6317
vn 0.8791 0.2207 -0.4224
vn 0.9027 0.1364 -0.4081
vn 0.8171 -0.5359 -0.2123
vn 0.5490 -0.8344 -0.0487
vn 0.9131 0.1023 -0.3945
vn 0.9186 0.0919 -0.3843
vn 0.0122 0.9832 -0.1819
vn 0.9234 0.0772 -0.3760
vn 0.3113 0.9037 -0.2940
vn 0.9317 0.0111 -0.3630
vn 0.6181 0.6830 -0.3891
vn 0.9317 -0.1485 -0.3314
vn 0.8080 0.4058 -0.4270
vn 0.8885 -0.3692 -0.2723
vn 0.9839 0.1131 -0.1385
vn 0.9918 0.0519 -0.1165
vn 0.3450 0.9275 -0.1440
vn 0.6726 0.7218 -0.1629
vn 0.9913 -0.1056 -0.0778
vn 0.8784 0.4479 -0.1664
vn 0.9438 -0.3295 -0.0265
vn 0.9532 0.2547 -0.1630
vn 0.8654 -0.5005 0.0229
vn 0.9734 0.1648 -0.1588
vn 0.5724 -0.8156 0.0839
vn 0.9792 0.1311 -0.1545
vn 0.9810 0.1237 -0.1491
vn 0.0266 0.9926 -0.1188
vn 0.8094 -0.5207 0.2716
vn 0.5348 -0.8160 0.2194
vn 0.9576 0.2421 0.1562
vn 0.9709 0.1874 0.1493
vn 0.9770 0.1542 0.1474
vn 0.0104 0.9987 -0.0498
vn 0.9811 0.1122 0.1577
vn 0.2958 0.9550 0.0223
vn 0.9827 0.0213 0.1838
vn 0.6000 0.7945 0.0936
vn 0.9641 -0.1504 0.2188
vn 0.8194 0.5550 0.1434
vn 0.8975 -0.3652 0.2473
vn 0.9214 0.3543 0.1594
vn 0.1697 0.9700 0.1740
vn 0.3981 0.8529 0.3376
vn 0.8241 -0.0618 0.5630
vn 0.7911 -0.2522 0.5572
vn 0.5906 0.6595 0.4650
vn 0.7208 -0.4476 0.5291
vn 0.7063 0.4708 0.5287
vn 0.6444 -0.5748 0.5044
vn 0.7641 0.3431 0.5463
vn 0.4407 -0.8304 0.3409
vn 0.7959 0.2581 0.5476
vn 0.8166 0.1785 0.5489
vn -0.0365 0.9992 0.0136
vn 0.8278 0.0793 0.5553
vn 0.3739 0.3841 0.8441
vn 0.4093 0.2776 0.8691
vn 0.4389 0.1597 0.8842
vn -0.1041 0.9930 0.0554
vn 0.4617 0.0140 0.8869
vn 0.0027 0.9625 0.2714
vn 0.4716 -0.1634 0.8665
vn 0.1251 0.8600 0.4946
vn 0.4616 -0.3606 0.8105
vn 0.2407 0.6908 0.6818
vn 0.4311 -0.5336 0.7276
vn 0.3233 0.5157 0.7934
vn 0.3973 -0.6349 0.6626
vn 0.3016 -0.8545 0.4229
vn 0.0530 -0.2525 0.9661
vn 0.0878 -0.4450 0.8912
vn -0.1495 0.8263 0.5429
vn -0.1180 0.6545 0.7468
vn 0.1144 -0.6023 0.7900
vn -0.0862 0.4794 0.8734
vn 0.1265 -0.6895 0.7131
vn -0.0613 0.3451 0.9365
vn 0.1437 -0.8813 0.4501
vn -0.0392 0.2300 0.9724
vn -0.0134 0.0971 0.9952
vn -0.1794 0.9813 0.0702
vn 0.0179 -0.0653 0.9977
vn -0.1705 0.9375 0.3033
vn -0.4415 0.1464 0.8852
vn -0.4204 0.0142 0.9072
vn -0.2557 0.9651 0.0568
vn -0.3834 -0.1464 0.9119
vn -0.3378 0.9009 0.2723
vn -0.3267 -0.3293 0.8859
vn -0.4060 0.7702 0.4919
vn -0.2519 -0.5135 0.8202
vn -0.4464 0.5833 0.6786
vn -0.1758 -0.6604 0.7301
vn -0.4568 0.3995 0.7948
vn -0.1263 -0.7399 0.6608
vn -0.4524 0.2620 0.8524
vn -0.0037 -0.9058 0.4236
vn -0.5267 -0.5730 0.6278
vn -0.4117 -0.7123 0.5684
vn -0.7220 0.4916 0.4868
vn -0.7628 0.2973 0.5742
vn -0.3325 -0.7863 0.5206
vn -0.7709 0.1587 0.6169
vn -0.1187 -0.9295 0.3491
vn -0.7654 0.0497 0.6416
vn -0.7463 -0.0721 0.6617
vn -0.3239 0.9460 0.0144
vn -0.7049 -0.2225 0.6735
vn -0.4841 0.8563 0.1794
vn -0.6322 -0.3967 0.6655
vn -0.6257 0.6992 0.3458
vn -0.3705 0.9274 -0.0508
vn -0.9430 -0.1415 0.3012
vn -0.9042 -0.2768 0.3253
vn -0.5853 0.8100 0.0367
vn -0.8273 -0.4435 0.3446
vn -0.7737 0.6212 0.1242
vn -0.7052 -0.6176 0.3481
vn -0.8994 0.3894 0.1983
vn -0.5647 -0.7548 0.3337
vn -0.9517 0.1865 0.2439
vn -0.4657 -0.8262 0.3170
vn -0.9625 0.0539 0.2658
vn -0.1873 -0.9533 0.2367
vn -0.9588 -0.0390 0.2813
vn -0.9467 0.3024 -0.1107
vn -0.9902 0.0955 -0.1020
vn -0.6148 -0.7854 0.0718
vn -0.5076 -0.8572 0.0869
vn -0.9951 -0.0249 -0.0958
vn -0.2068 -0.9725 0.1065
vn -0.9915 -0.0967 -0.0873
vn -0.9817 -0.1775 -0.0691
vn -0.3859 0.9146 -0.1203
vn -0.9534 -0.2991 -0.0388
vn -0.6212 0.7742 -0.1213
vn -0.8857 -0.4642 0.0005
vn -0.8224 0.5563 -0.1186
vn -0.7638 -0.6441 0.0410
vn -0.9157 -0.1903 -0.3538
vn -0.8914 -0.3099 -0.3306
vn -0.3750 0.9100 -0.1765
vn -0.5957 0.7608 -0.2574
vn -0.8277 -0.4798 -0.2910
vn -0.7825 0.5300 -0.3268
vn -0.7086 -0.6661 -0.2326
vn -0.8915 0.2652 -0.3673
vn -0.5623 -0.8091 -0.1708
vn -0.9241 0.0569 -0.3777
vn -0.4566 -0.8798 -0.1324
vn -0.9255 -0.0564 -0.3744
vn -0.1802 -0.9834 -0.0199
vn -0.9228 -0.1178 -0.3668
vn -0.4136 -0.8277 -0.3792
vn -0.3202 -0.8914 -0.3207
vn -0.7950 0.0828 -0.6008
vn -0.8000 -0.0410 -0.5985
vn -0.1072 -0.9862 -0.1263
vn -0.7978 -0.1168 -0.5915
vn -0.7840 -0.2055 -0.5857
vn -0.3442 0.9127 -0.2203
vn -0.7460 -0.3393 -0.5729
vn -0.5192 0.7725 -0.3656
vn -0.6686 -0.5151 -0.5362
vn -0.6711 0.5532 -0.4934
vn -0.5474 -0.6955 -0.4653
vn -0.7636 0.2947 -0.5745
vn -0.2849 0.9232 -0.2580
vn -0.3814 0.8061 -0.4524
vn -0.4362 -0.3672 -0.8215
vn -0.3557 -0.5391 -0.7634
vn -0.4672 0.6170 -0.6333
vn -0.2569 -0.7020 -0.6641
vn -0.5202 0.3778 -0.7659
vn -0.1668 -0.8190 -0.5489
vn -0.5360 0.1597 -0.8289
vn -0.1132 -0.8781 -0.4649
vn -0.5330 0.0099 -0.8460
vn 0.0038 -0.9805 -0.1964
vn -0.5198 -0.0988 -0.8485
vn -0.4901 -0.2173 -0.8441
vn 0.1573 -0.9818 0.1064
vn 0.1557 -0.9812 0.1136
vn 0.1395 -0.9848 0.1032
vn 0.1579 -0.9823 0.1002
vn 0.1214 -0.9846 0.1255
vn 0.1361 -0.9838 0.1164
vn 0.1361 -0.9845 0.1104
vn 0.1285 -0.9863 0.1037
vn 0.1440 -0.9830 0.1135
vn 0.1434 -0.9826 0.1182
vn 0.1436 -0.9836 0.1088
vn 0.1611 -0.9787 0.1270
vn 0.1605 -0.9786 0.1283
vn 0.1617 -0.9817 0.1002
vn 0.1570 -0.9802 0.1208
vn 0.1356 -0.9825 0.1276
usemtl Fur
s 1
f 3//1 2//2 12//3 13//4
f 8//5 7//6 20//7 21//8
f 222//9 3//1 13//4 14//10
f 225//11 8//5 21//8 22//12
f 4//13 222//9 14//10 15//14
f 9//15 225//11 22//12 23//16
f 5//17 4//13 15//14 16//18
f 10//19 9//15 23//16 24//20
f 223//21 5//17 16//18 17//22
f 6//23 223//21 17//22 18//24
f 1//25 123//26 11//27
f 224//28 6//23 18//24 19//29
f 2//2 1//25 11//27 12//3
f 7//6 224//28 19//29 20//7
f 12//3 11//27 25//30 26//31
f 20//7 19//29 33//32 34//33
f 13//4 12//3 26//31 27//34
f 21//8 20//7 34//33 35//35
f 14//10 13//4 27//34 28//36
f 22//12 21//8 35//35 36//37
f 15//14 14//10 28//36 29//38
f 23//16 22//12 36//37 37//39
f 16//18 15//14 29//38 30//40
f 24//20 23//16 37//39 38//41
f 17//22 16//18 30//40 31//42
f 18//24 17//22 31//42 32//43
f 11//27 123//26 25//30
f 19//29 18//24 32//43 33//32
f 30//40 29//38 43//44 44//45
f 38//41 37//39 51//46 52//47
f 31//42 30//40 44//45 45//48
f 32//43 31//42 45//48 46//49
f 25//30 123//26 39//50
f 33//32 32//43 46//49 47//51
f 26//31 25//30 39//50 40//52
f 34//33 33//32 47//51 48//53
f 27//34 26//31 40//52 41//54
f 35//35 34//33 48//53 49//55
f 28//36 27//34 41//54 42//56
f 36//37 35//35 49//55 50//57
f 29//38 28//36 42//56 43//44
f 37//39 36//37 50//57 51//46
f 48//53 47//51 61//58 62//59
f 41//54 40//52 54//60 55//61
f 49//55 48//53 62//59 63//62
f 42//56 41//54 55//61 56//63
f 50//57 49//55 63//62 64//64
f 43//44 42//56 56//63 57//65
f 51//46 50//57 64//64 65//66
f 44//45 43//44 57//65 58//67
f 52//47 51//46 65//66 66//68
f 45//48 44//45 58//67 59//69
f 46//49 45//48 59//69 60//70
f 39//50 123//26 53//71
f 47//51 46//49 60//70 61//58
f 40//52 39//50 53//71 54//60
f 66//68 65//66 79//72 80//73
f 59//69 58//67 72//74 73//75
f 60//70 59//69 73//75 74//76
f 53//71 123//26 67//77
f 61//58 60//70 74//76 75//78
f 54//60 53//71 67//77 68//79
f 62//59 61//58 75//78 76//80
f 55//61 54//60 68//79 69//81
f 63//62 62//59 76//80 77//82
f 56//63 55//61 69//81 70//83
f 64//64 63//62 77//82 78//84
f 57//65 56//63 70//83 71//85
f 65//66 64//64 78//84 79//72
f 58//67 57//65 71//85 72//74
f 69//81 68//79 82//86 83//87
f 77//82 76//80 90//88 91//89
f 70//83 69//81 83//87 84//90
f 78//84 77//82 91//89 92//91
f 71//85 70//83 84//90 85//92
f 79//72 78//84 92//91 93//93
f 72//74 71//85 85//92 86//94
f 80//73 79//72 93//93 94//95
f 73//75 72//74 86//94 87//96
f 74//76 73//75 87//96 88//97
f 67//77 123//26 81//98
f 75//78 74//76 88//97 89//99
f 68//79 67//77 81//98 82//86
f 76//80 75//78 89//99 90//88
f 87//96 86//94 100//100 101//101
f 88//97 87//96 101//101 102//102
f 81//98 123//26 95//103
f 89//99 88//97 102//102 103//104
f 82//86 81//98 95//103 96//105
f 90//88 89//99 103//104 104//106
f 83//87 82//86 96//105 97//107
f 91//89 90//88 104//106 105//108
f 84//90 83//87 97//107 98//109
f 92//91 91//89 105//108 106//110
f 85//92 84//90 98//109 99//111
f 93//93 92//91 106//110 107//112
f 86//94 85//92 99//111 100//100
f 94//95 93//93 107//112 108//113
f 105//108 104//106 118//114 119//115
f 98//109 97//107 111//116 112//117
f 106//110 105//108 119//115 120//118
f 99//111 98//109 112//117 113//119
f 107//112 106//110 120//118 121//120
f 100//100 99//111 113//119 114//121
f 108//113 107//112 121//120 122//122
f 101//101 100//100 114//121 115//123
f 102//102 101//101 115//123 116//124
f 95//103 123//26 109//125
f 103//104 102//102 116//124 117//126
f 96//105 95//103 109//125 110//127
f 104//106 103//104 117//126 118//114
f 97//107 96//105 110//127 111//116
f 116//124 115//123 130//128 131//129
f 109//125 123//26 124//130
f 117//126 116//124 131//129 132//131
f 110//127 109//125 124//130 125//132
f 118//114 117//126 132//131 133//133
f 111//116 110//127 125//132 126//134
f 119//115 118//114 133//133 134//135
f 112//117 111//116 126//134 127//136
f 120//118 119//115 134//135 135//137
f 113//119 112//117 127//136 128//138
f 121//120 120//118 135//137 136//139
f 114//121 113//119 128//138 129//140
f 122//122 121//120 136//139 137//141
f 115//123 114//121 129//140 130//128
f 135//137 134//135 148//142 149//143
f 128//138 127//136 141//144 142//145
f 136//139 135//137 149//143 150//146
f 129//140 128//138 142//145 143//147
f 137//141 136//139 150//146 151//148
f 130//128 129//140 143//147 144//149
f 131//129 130//128 144//149 145//150
f 124//130 123//26 138//151
f 132//131 131//129 145//150 146//152
f 125//132 124//130 138//151 139//153
f 133//133 132//131 146//152 147//154
f 126//134 125//132 139//153 140//155
f 134//135 133//133 147//154 148//142
f 127//136 126//134 140//155 141//144
f 138//151 123//26 152//156
f 146//152 145//150 159//157 160//158
f 139//153 138//151 152//156 153//159
f 147//154 146//152 160//158 161//160
f 140//155 139//153 153//159 154//161
f 148//142 147//154 161//160 162//162
f 141//144 140//155 154//161 155//163
f 149//143 148//142 162//162 163//164
f 142//145 141//144 155//163 156//165
f 150//146 149//143 163//164 164//166
f 143//147 142//145 156//165 157//167
f 151//148 150//146 164//166 165//168
f 144//149 143//147 157//167 158//169
f 145//150 144//149 158//169 159//157
f 156//165 155//163 169//170 170//171
f 164//166 163//164 177//172 178//173
f 157//167 156//165 170//171 171//174
f 165//168 164//166 178//173 179//175
f 158//169 157//167 171//174 172//176
f 159//157 158//169 172//176 173//177
f 152//156 123//26 166//178
f 160//158 159//157 173//177 174//179
f 153//159 152//156 166//178 167//180
f 161//160 160//158 174//179 175//181
f 154//161 153//159 167//180 168//182
f 162//162 161//160 175//181 176//183
f 155//163 154//161 168//182 169//170
f 163//164 162//162 176//183 177//172
f 174//179 173//177 187//184 188//185
f 167//180 166//178 180//186 181//187
f 175//181 174//179 188//185 189//188
f 168//182 167//180 181//187 182//189
f 176//183 175//181 189//188 190//190
f 169//170 168//182 182//189 183//191
f 177//172 176//183 190//190 191//192
f 170//171 169//170 183//191 184//193
f 178//173 177//172 191//192 192//194
f 171//174 170//171 184//193 185//195
f 179//175 178//173 192//194 193//196
f 172//176 171//174 185//195 186//197
f 173//177 172//176 186//197 187//184
f 166//178 123//26 180//186
f 192//194 191//192 205//198 206//199
f 185//195 184//193 198//200 199//201
f 193//196 192//194 206//199 207//202
f 186//197 185//195 199//201 200//203
f 187//184 186//197 200//203 201//204
f 180//186 123//26 194//205
f 188//185 187//184 201//204 202//206
f 181//187 180//186 194//205 195//207
f 189//188 188//185 202//206 203//208
f 182//189 181//187 195//207 196//209
f 190//190 189//188 203//208 204//210
f 183//191 182//189 196//209 197//211
f 191//192 190//190 204//210 205//198
f 184//193 183//191 197//211 198//200
f 195//207 194//205 208//212 209//213
f 203//208 202//206 216//214 217//215
f 196//209 195//207 209//213 210//216
f 204//210 203//208 217//215 218//217
f 197//211 196//209 210//216 211//218
f 205//198 204//210 218//217 219//219
f 198//200 197//211 211//218 212//220
f 206//199 205//198 219//219 220//221
f 199//201 198//200 212//220 213//222
f 207//202 206//199 220//221 221//223
f 200//203 199//201 213//222 214//224
f 201//204 200//203 214//224 215//225
f 194//205 123//26 208//212
f 202//206 201//204 215//225 216//214
f 213//222 212//220 4//13 5//17
f 221//223 220//221 9//15 10//19
f 214//224 213//222 5//17 223//21
f 215//225 214//224 223//21 6//23
f 208//212 123//26 1//25
f 216//214 215//225 6//23 224//28
f 209//213 208//212 1//25 2//2
f 217//215 216//214 224//28 7//6
f 210//216 209//213 2//2 3//1
f 218//217 217//215 7//6 8//5
f 211//218 210//216 3//1 222//9
f 219//219 218//217 8//5 225//11
f 212//220 211//218 222//9 4//13
f 220//221 219//219 225//11 9//15
f 66//68 80//73 231//226 230//227
f 108//113 122//122 234//228 233//229
f 207//202 221//223 241//230 240//231
f 137//141 151//148 236//232 235//233
f 165//168 179//175 238//234 237//235
f 193//196 207//202 240//231 239//236
f 24//20 38//41 228//237 227//238
f 94//95 108//113 233//229 232//239
f 151//148 165//168 237//235 236//232
f 52//47 66//68 230//227 229//240
f 122//122 137//141 235//233 234//228
f 80//73 94//95 232//239 231//226
f 10//19 24//20 227//238 226//241
f 179//175 193//196 239//236 238//234
f 221//223 10//19 226//241 241//230
f 38//41 52//47 229//240 228//237
