# Blender v2.77 (sub 0) OBJ File: 'mlp clotchs 2.7.blend'
# www.blender.org
mtllib Vag_hole 2.7.mtl
o vag_base.002_Mesh1_Component_4_1_Component_6_1_Model.007
v 0.224335 -1.530064 -0.282303
v 0.337775 -1.531548 -0.281904
v 0.327083 -1.759209 -0.220655
v 0.188973 -1.662144 -0.246769
v -0.001765 -1.562248 -0.273643
v 0.195344 -1.409458 -0.314749
v 0.337014 -1.336643 -0.334337
v 0.220295 -1.276764 -0.350447
v 0.331714 -1.183357 -0.375576
v 0.174504 -1.217583 -0.366369
v 0.303862 -0.923550 -0.445471
v 0.156125 -1.074940 -0.404743
v 0.235456 -0.671917 -0.513168
v 0.086839 -1.066059 -0.407133
v 0.150197 -0.494427 -0.560919
v 0.047004 -0.860718 -0.462376
v 0.071776 -0.400871 -0.586086
v -0.005866 -0.975468 -0.431505
v -0.007613 -0.373230 -0.593523
v -0.064708 -0.862865 -0.461798
v -0.095792 -0.403862 -0.585283
v -0.107352 -1.069183 -0.406292
v -0.182986 -0.500698 -0.559231
v -0.173807 -1.077511 -0.404053
v -0.259439 -0.676544 -0.511923
v -0.184361 -1.218616 -0.366091
v -0.316268 -0.923496 -0.445486
v -0.230586 -1.277443 -0.350264
v -0.344606 -1.184940 -0.375151
v -0.203749 -1.409264 -0.314800
v -0.348873 -1.337273 -0.334167
v -0.223173 -1.527554 -0.282976
v -0.333488 -1.527058 -0.283110
v -0.179168 -1.658360 -0.247786
v -0.305697 -1.749840 -0.223175
v -0.182676 -1.826900 -0.202444
v -0.272744 -1.985909 -0.159666
v -0.140242 -1.911869 -0.179586
v -0.238427 -2.217880 -0.097260
v -0.138539 -2.101204 -0.128649
v -0.206538 -2.429283 -0.040386
v -0.103288 -2.125042 -0.122236
v -0.175327 -2.623505 0.011866
v -0.096204 -2.334076 -0.066000
v -0.143034 -2.808990 0.061766
v -0.061107 -2.299175 -0.075390
v -0.103846 -2.959869 0.102356
v -0.035481 -2.483353 -0.025841
v -0.051952 -3.050648 0.126778
v 0.005081 -2.350388 -0.061611
v 0.009998 -3.059895 0.129265
v 0.052048 -2.432045 -0.039644
v 0.079341 -2.967793 0.104488
v 0.081788 -2.234692 -0.092737
v 0.143318 -2.832119 0.067987
v 0.125262 -2.271423 -0.082855
v 0.189162 -2.707577 0.034481
v 0.127433 -2.097965 -0.129520
v 0.220979 -2.574009 -0.001451
v 0.161066 -2.091076 -0.131374
v 0.242872 -2.413933 -0.044518
v 0.154043 -1.912289 -0.179472
v 0.265130 -2.221111 -0.096390
v 0.197841 -1.831982 -0.201078
v 0.298034 -1.995705 -0.157032
v 0.188973 -1.649071 -0.193020
v 0.327083 -1.746059 -0.166927
v 0.337775 -1.518402 -0.228174
v 0.224335 -1.516975 -0.228558
v 0.195344 -1.396347 -0.261009
v -0.001765 -1.549259 -0.219872
v 0.337014 -1.323441 -0.280624
v 0.331714 -1.170059 -0.321888
v 0.220295 -1.263573 -0.296730
v 0.174504 -1.204365 -0.312658
v 0.303862 -0.910305 -0.391769
v 0.235456 -0.658772 -0.459438
v 0.156125 -1.061665 -0.351048
v 0.086839 -1.052795 -0.353434
v 0.150197 -0.481358 -0.507168
v 0.071776 -0.387859 -0.532322
v 0.047004 -0.847530 -0.408657
v -0.005866 -0.962242 -0.377796
v -0.007613 -0.360241 -0.539751
v -0.095792 -0.390842 -0.531519
v -0.064708 -0.849678 -0.408079
v -0.107352 -1.055920 -0.352594
v -0.182986 -0.487621 -0.505482
v -0.259439 -0.663395 -0.458195
v -0.173807 -1.064236 -0.350357
v -0.184360 -1.205395 -0.312380
v -0.316268 -0.910255 -0.391783
v -0.344606 -1.171638 -0.321463
v -0.230586 -1.264252 -0.296547
v -0.203749 -1.396156 -0.261061
v -0.348873 -1.324066 -0.280455
v -0.333488 -1.513916 -0.229380
v -0.223173 -1.514473 -0.229231
v -0.179168 -1.645294 -0.194035
v -0.305697 -1.736702 -0.169443
v -0.272744 -1.972717 -0.105949
v -0.182676 -1.813778 -0.148708
v -0.140242 -1.898727 -0.125854
v -0.238427 -2.204617 -0.043562
v -0.206538 -2.415951 0.013292
v -0.138539 -2.087994 -0.074936
v -0.103288 -2.111824 -0.068525
v -0.175327 -2.610107 0.065527
v -0.143034 -2.795532 0.115412
v -0.096204 -2.320782 -0.012310
v -0.061107 -2.285896 -0.021696
v -0.103846 -2.946369 0.155991
v -0.051952 -3.037117 0.180405
v -0.035481 -2.470009 0.027836
v 0.005081 -2.337090 -0.007923
v 0.009998 -3.046360 0.182892
v 0.079341 -2.954288 0.158121
v 0.052048 -2.418720 0.014038
v 0.081788 -2.221436 -0.039038
v 0.143318 -2.818657 0.121632
v 0.189162 -2.694153 0.088137
v 0.125262 -2.258152 -0.029160
v 0.127433 -2.084759 -0.075808
v 0.220979 -2.560623 0.052214
v 0.242872 -2.400600 0.009163
v 0.161066 -2.077866 -0.077662
v 0.154043 -1.899147 -0.125742
v 0.265130 -2.207844 -0.042694
v 0.298034 -1.982498 -0.103319
v 0.197841 -1.818859 -0.147343
vt 0.8032 0.6461
vt 0.8000 0.6316
vt 0.8296 0.6336
vt 0.8211 0.6510
vt 0.8099 0.6750
vt 0.7861 0.6494
vt 0.7693 0.6310
vt 0.7627 0.6457
vt 0.7392 0.6310
vt 0.7523 0.6513
vt 0.7112 0.6339
vt 0.7275 0.6531
vt 0.6866 0.6421
vt 0.7271 0.6619
vt 0.6677 0.6525
vt 0.7078 0.6665
vt 0.6569 0.6622
vt 0.7187 0.6735
vt 0.6535 0.6722
vt 0.7076 0.6807
vt 0.6567 0.6835
vt 0.7268 0.6865
vt 0.6672 0.6948
vt 0.7268 0.6950
vt 0.6855 0.7049
vt 0.7513 0.6969
vt 0.7095 0.7127
vt 0.7613 0.7030
vt 0.7372 0.7169
vt 0.7848 0.7001
vt 0.7671 0.7181
vt 0.8017 0.7029
vt 0.7978 0.7169
vt 0.8198 0.6977
vt 0.8274 0.7140
vt 0.8392 0.6986
vt 0.8541 0.7104
vt 0.8490 0.6935
vt 0.8776 0.7066
vt 0.8681 0.6937
vt 0.8974 0.7030
vt 0.8708 0.6892
vt 0.9146 0.6994
vt 0.8902 0.6888
vt 0.9305 0.6956
vt 0.8873 0.6843
vt 0.9433 0.6909
vt 0.9038 0.6814
vt 0.9509 0.6845
vt 0.8922 0.6760
vt 0.9519 0.6767
vt 0.8995 0.6701
vt 0.9445 0.6677
vt 0.8817 0.6660
vt 0.9332 0.6593
vt 0.8849 0.6605
vt 0.9226 0.6532
vt 0.8686 0.6599
vt 0.9110 0.6489
vt 0.8676 0.6556
vt 0.8967 0.6458
vt 0.8497 0.6561
vt 0.8788 0.6426
vt 0.8406 0.6503
vt 0.8561 0.6379
vt 0.8225 0.8031
vt 0.8317 0.8208
vt 0.8012 0.8237
vt 0.8041 0.8086
vt 0.7864 0.8055
vt 0.8104 0.7785
vt 0.7692 0.8249
vt 0.7385 0.8244
vt 0.7623 0.8097
vt 0.7517 0.8041
vt 0.7112 0.8207
vt 0.6879 0.8125
vt 0.7271 0.8023
vt 0.7267 0.7937
vt 0.6710 0.8023
vt 0.6627 0.7933
vt 0.7076 0.7893
vt 0.7182 0.7822
vt 0.6603 0.7851
vt 0.6620 0.7756
vt 0.7071 0.7756
vt 0.7258 0.7688
vt 0.6698 0.7647
vt 0.6854 0.7536
vt 0.7254 0.7605
vt 0.7498 0.7576
vt 0.7078 0.7443
vt 0.7347 0.7382
vt 0.7597 0.7510
vt 0.7838 0.7532
vt 0.7650 0.7353
vt 0.7968 0.7354
vt 0.8012 0.7498
vt 0.8202 0.7547
vt 0.8277 0.7376
vt 0.8556 0.7410
vt 0.8404 0.7533
vt 0.8506 0.7585
vt 0.8797 0.7449
vt 0.8997 0.7488
vt 0.8701 0.7580
vt 0.8729 0.7624
vt 0.9167 0.7526
vt 0.9318 0.7566
vt 0.8925 0.7629
vt 0.8896 0.7673
vt 0.9425 0.7614
vt 0.9478 0.7672
vt 0.9066 0.7702
vt 0.8949 0.7760
vt 0.9485 0.7733
vt 0.9441 0.7815
vt 0.9023 0.7817
vt 0.8844 0.7865
vt 0.9346 0.7905
vt 0.9248 0.7970
vt 0.8878 0.7918
vt 0.8712 0.7932
vt 0.9139 0.8019
vt 0.9002 0.8059
vt 0.8703 0.7976
vt 0.8519 0.7975
vt 0.8821 0.8103
vt 0.8589 0.8158
vt 0.8427 0.8035
vt 0.8017 0.8311
vt 0.7693 0.8322
vt 0.8327 0.8281
vt 0.7380 0.8315
vt 0.7096 0.8275
vt 0.6850 0.8188
vt 0.6667 0.8075
vt 0.6569 0.7966
vt 0.6535 0.7858
vt 0.6554 0.7732
vt 0.6646 0.7598
vt 0.6819 0.7474
vt 0.7056 0.7375
vt 0.7336 0.7311
vt 0.7646 0.7280
vt 0.7970 0.7280
vt 0.8285 0.7302
vt 0.8566 0.7337
vt 0.8810 0.7378
vt 0.9012 0.7418
vt 0.9184 0.7458
vt 0.9342 0.7503
vt 0.9466 0.7561
vt 0.9539 0.7642
vt 0.9557 0.7737
vt 0.9502 0.7858
vt 0.9392 0.7962
vt 0.9283 0.8032
vt 0.9165 0.8085
vt 0.9021 0.8129
vt 0.8838 0.8174
vt 0.8604 0.8230
vn -0.0000 -0.2598 -0.9657
vn 0.7122 -0.1964 -0.6739
vn 0.7121 -0.2377 -0.6606
vn 0.7104 -0.1699 -0.6830
vn 0.7136 -0.1341 -0.6876
vn 0.7131 -0.0530 -0.6991
vn 0.6853 0.0613 -0.7257
vn 0.6249 0.2020 -0.7541
vn 0.4419 0.4362 -0.7838
vn 0.0003 0.5877 -0.8091
vn -0.4293 0.4408 -0.7883
vn -0.6307 0.2071 -0.7479
vn -0.6939 0.0362 -0.7191
vn -0.7113 -0.0677 -0.6997
vn -0.7145 -0.1356 -0.6864
vn -0.7181 -0.1979 -0.6672
vn -0.7075 -0.2503 -0.6609
vn -0.7020 -0.2700 -0.6590
vn -0.7002 -0.2776 -0.6577
vn -0.6991 -0.2813 -0.6573
vn -0.6993 -0.2852 -0.6555
vn -0.6984 -0.2926 -0.6531
vn -0.6995 -0.3227 -0.6376
vn -0.6814 -0.4352 -0.5885
vn -0.4488 -0.7793 -0.4375
vn 0.3053 -0.8635 -0.4014
vn 0.6271 -0.5313 -0.5697
vn 0.6623 -0.4402 -0.6063
vn 0.6893 -0.3746 -0.6201
vn 0.7050 -0.3039 -0.6408
vn 0.7034 -0.2660 -0.6592
vn 0.6974 -0.2699 -0.6640
vn 0.7027 -0.2713 -0.6577
vn 0.0000 0.2598 0.9657
vn 0.7133 0.1247 0.6896
vn 0.7126 0.1677 0.6813
vn 0.7102 0.1955 0.6764
vn 0.7127 0.2286 0.6632
vn 0.7107 0.3038 0.6345
vn 0.6809 0.4152 0.6033
vn 0.6187 0.5492 0.5618
vn 0.4374 0.7621 0.4774
vn 0.0003 0.9040 0.4276
vn -0.4246 0.7683 0.4791
vn -0.6250 0.5500 0.5539
vn -0.6899 0.3904 0.6095
vn -0.7091 0.2918 0.6419
vn -0.7136 0.2266 0.6629
vn -0.7185 0.1624 0.6763
vn -0.7090 0.1141 0.6959
vn -0.7040 0.0962 0.7037
vn -0.7023 0.0890 0.7063
vn -0.7012 0.0856 0.7078
vn -0.7013 0.0812 0.7082
vn -0.7004 0.0737 0.7099
vn -0.7018 0.0391 0.7113
vn -0.6845 -0.0853 0.7240
vn -0.4499 -0.4653 0.7623
vn 0.3056 -0.5569 0.7723
vn 0.6312 -0.1791 0.7546
vn 0.6661 -0.0799 0.7415
vn 0.6924 -0.0156 0.7214
vn 0.7071 0.0569 0.7048
vn 0.7050 0.0999 0.7022
vn 0.6992 0.0992 0.7080
vn 0.7046 0.0944 0.7033
usemtl vag_hole
s 1
f 1/1/1 2/2/2 3/3/3 4/4/1
f 1/1/1 4/4/1 5/5/1 6/6/1
f 1/1/1 6/6/1 7/7/4 2/2/2
f 8/8/1 9/9/5 7/7/4 6/6/1
f 8/8/1 6/6/1 5/5/1 10/10/1
f 8/8/1 10/10/1 11/11/6 9/9/5
f 12/12/1 13/13/7 11/11/6 10/10/1
f 12/12/1 10/10/1 5/5/1 14/14/1
f 12/12/1 14/14/1 15/15/8 13/13/7
f 16/16/1 17/17/9 15/15/8 14/14/1
f 16/16/1 14/14/1 5/5/1 18/18/1
f 16/16/1 18/18/1 19/19/10 17/17/9
f 20/20/1 21/21/11 19/19/10 18/18/1
f 20/20/1 18/18/1 5/5/1 22/22/1
f 20/20/1 22/22/1 23/23/12 21/21/11
f 24/24/1 25/25/13 23/23/12 22/22/1
f 24/24/1 22/22/1 5/5/1 26/26/1
f 24/24/1 26/26/1 27/27/14 25/25/13
f 28/28/1 29/29/15 27/27/14 26/26/1
f 28/28/1 26/26/1 5/5/1 30/30/1
f 28/28/1 30/30/1 31/31/16 29/29/15
f 32/32/1 33/33/17 31/31/16 30/30/1
f 32/32/1 30/30/1 5/5/1 34/34/1
f 32/32/1 34/34/1 35/35/18 33/33/17
f 36/36/1 37/37/19 35/35/18 34/34/1
f 36/36/1 34/34/1 5/5/1 38/38/1
f 36/36/1 38/38/1 39/39/20 37/37/19
f 40/40/1 41/41/21 39/39/20 38/38/1
f 40/40/1 38/38/1 5/5/1 42/42/1
f 40/40/1 42/42/1 43/43/22 41/41/21
f 44/44/1 45/45/23 43/43/22 42/42/1
f 44/44/1 42/42/1 5/5/1 46/46/1
f 44/44/1 46/46/1 47/47/24 45/45/23
f 48/48/1 49/49/25 47/47/24 46/46/1
f 48/48/1 46/46/1 5/5/1 50/50/1
f 48/48/1 50/50/1 51/51/26 49/49/25
f 52/52/1 53/53/27 51/51/26 50/50/1
f 52/52/1 50/50/1 5/5/1 54/54/1
f 52/52/1 54/54/1 55/55/28 53/53/27
f 56/56/1 57/57/29 55/55/28 54/54/1
f 56/56/1 54/54/1 5/5/1 58/58/1
f 56/56/1 58/58/1 59/59/30 57/57/29
f 60/60/1 61/61/31 59/59/30 58/58/1
f 60/60/1 58/58/1 5/5/1 62/62/1
f 60/60/1 62/62/1 63/63/32 61/61/31
f 64/64/1 65/65/33 63/63/32 62/62/1
f 64/64/1 62/62/1 5/5/1 4/4/1
f 64/64/1 4/4/1 3/3/3 65/65/33
f 66/66/34 67/67/35 68/68/36 69/69/34
f 70/70/34 71/71/34 66/66/34 69/69/34
f 68/68/36 72/72/37 70/70/34 69/69/34
f 70/70/34 72/72/37 73/73/38 74/74/34
f 75/75/34 71/71/34 70/70/34 74/74/34
f 73/73/38 76/76/39 75/75/34 74/74/34
f 75/75/34 76/76/39 77/77/40 78/78/34
f 79/79/34 71/71/34 75/75/34 78/78/34
f 77/77/40 80/80/41 79/79/34 78/78/34
f 79/79/34 80/80/41 81/81/42 82/82/34
f 83/83/34 71/71/34 79/79/34 82/82/34
f 81/81/42 84/84/43 83/83/34 82/82/34
f 83/83/34 84/84/43 85/85/44 86/86/34
f 87/87/34 71/71/34 83/83/34 86/86/34
f 85/85/44 88/88/45 87/87/34 86/86/34
f 87/87/34 88/88/45 89/89/46 90/90/34
f 91/91/34 71/71/34 87/87/34 90/90/34
f 89/89/46 92/92/47 91/91/34 90/90/34
f 91/91/34 92/92/47 93/93/48 94/94/34
f 95/95/34 71/71/34 91/91/34 94/94/34
f 93/93/48 96/96/49 95/95/34 94/94/34
f 95/95/34 96/96/49 97/97/50 98/98/34
f 99/99/34 71/71/34 95/95/34 98/98/34
f 97/97/50 100/100/51 99/99/34 98/98/34
f 99/99/34 100/100/51 101/101/52 102/102/34
f 103/103/34 71/71/34 99/99/34 102/102/34
f 101/101/52 104/104/53 103/103/34 102/102/34
f 103/103/34 104/104/53 105/105/54 106/106/34
f 107/107/34 71/71/34 103/103/34 106/106/34
f 105/105/54 108/108/55 107/107/34 106/106/34
f 107/107/34 108/108/55 109/109/56 110/110/34
f 111/111/34 71/71/34 107/107/34 110/110/34
f 109/109/56 112/112/57 111/111/34 110/110/34
f 111/111/34 112/112/57 113/113/58 114/114/34
f 115/115/34 71/71/34 111/111/34 114/114/34
f 113/113/58 116/116/59 115/115/34 114/114/34
f 115/115/34 116/116/59 117/117/60 118/118/34
f 119/119/34 71/71/34 115/115/34 118/118/34
f 117/117/60 120/120/61 119/119/34 118/118/34
f 119/119/34 120/120/61 121/121/62 122/122/34
f 123/123/34 71/71/34 119/119/34 122/122/34
f 121/121/62 124/124/63 123/123/34 122/122/34
f 123/123/34 124/124/63 125/125/64 126/126/34
f 127/127/34 71/71/34 123/123/34 126/126/34
f 125/125/64 128/128/65 127/127/34 126/126/34
f 127/127/34 128/128/65 129/129/66 130/130/34
f 66/66/34 71/71/34 127/127/34 130/130/34
f 129/129/66 67/67/35 66/66/34 130/130/34
f 2/131/2 7/132/4 72/72/37 68/68/36
f 3/133/3 2/131/2 68/68/36 67/67/35
f 9/134/5 11/135/6 76/76/39 73/73/38
f 7/132/4 9/134/5 73/73/38 72/72/37
f 13/136/7 15/137/8 80/80/41 77/77/40
f 11/135/6 13/136/7 77/77/40 76/76/39
f 17/138/9 19/139/10 84/84/43 81/81/42
f 15/137/8 17/138/9 81/81/42 80/80/41
f 21/140/11 23/141/12 88/88/45 85/85/44
f 19/139/10 21/140/11 85/85/44 84/84/43
f 25/142/13 27/143/14 92/92/47 89/89/46
f 23/141/12 25/142/13 89/89/46 88/88/45
f 29/144/15 31/145/16 96/96/49 93/93/48
f 27/143/14 29/144/15 93/93/48 92/92/47
f 33/146/17 35/147/18 100/100/51 97/97/50
f 31/145/16 33/146/17 97/97/50 96/96/49
f 37/148/19 39/149/20 104/104/53 101/101/52
f 35/147/18 37/148/19 101/101/52 100/100/51
f 41/150/21 43/151/22 108/108/55 105/105/54
f 39/149/20 41/150/21 105/105/54 104/104/53
f 43/151/22 45/152/23 109/109/56 108/108/55
f 45/152/23 47/153/24 112/112/57 109/109/56
f 49/154/25 51/155/26 116/116/59 113/113/58
f 47/153/24 49/154/25 113/113/58 112/112/57
f 51/155/26 53/156/27 117/117/60 116/116/59
f 53/156/27 55/157/28 120/120/61 117/117/60
f 57/158/29 59/159/30 124/124/63 121/121/62
f 55/157/28 57/158/29 121/121/62 120/120/61
f 61/160/31 63/161/32 128/128/65 125/125/64
f 59/159/30 61/160/31 125/125/64 124/124/63
f 65/162/33 3/133/3 67/67/35 129/129/66
f 63/161/32 65/162/33 129/129/66 128/128/65
